<svg width="1440" height="5120" viewBox="0 0 1440 5120" fill="none" xmlns="http://www.w3.org/2000/svg">
<g filter="url(#filter0_d_128_2)">
<path d="M-240.987 2977.4C278.726 3032.76 367.534 2461.16 596.204 2613.39C1475.41 3198.68 470.5 3197.28 261.693 3211.09C-29.9324 3230.38 403.042 3969.78 117.476 3853.78C-27.6352 3794.84 -454.024 2954.71 -240.987 2977.4Z" fill="#F26419" fill-opacity="0.3" shape-rendering="crispEdges"/>
<path d="M-240.987 2977.4C278.726 3032.76 367.534 2461.16 596.204 2613.39C1475.41 3198.68 470.5 3197.28 261.693 3211.09C-29.9324 3230.38 403.042 3969.78 117.476 3853.78C-27.6352 3794.84 -454.024 2954.71 -240.987 2977.4Z" fill="#F26419" fill-opacity="0.3" shape-rendering="crispEdges"/>
<path d="M-241.04 2977.9C19.0499 3005.6 171.325 2876.4 287.105 2759.42C299.278 2747.12 311.042 2734.96 322.484 2723.14C338.259 2706.83 353.423 2691.16 368.206 2676.62C393.704 2651.54 418.021 2629.88 442.278 2614.25C466.533 2598.62 490.703 2589.04 515.913 2588.09C541.116 2587.14 567.413 2594.82 595.927 2613.8C705.813 2686.95 786.246 2750.93 842.472 2806.9C898.703 2862.88 930.693 2910.82 943.741 2951.91C956.78 2992.97 950.908 3027.18 931.378 3055.79C911.831 3084.42 878.57 3107.47 836.752 3126.09C753.116 3163.32 635.47 3182.72 525.64 3193.68C447.808 3201.44 373.95 3204.96 318.93 3207.58C296.312 3208.66 276.877 3209.58 261.66 3210.59C225.085 3213.01 199.811 3226.73 183.083 3248.7C166.37 3270.64 158.232 3300.77 155.788 3335.92C150.902 3406.23 168.779 3496.91 186.823 3583.27C187.94 3588.61 189.057 3593.94 190.17 3599.25C198.049 3636.83 205.695 3673.29 211.213 3706.57C217.512 3744.57 221.031 3778.38 218.975 3804.97C216.917 3831.58 209.287 3850.8 193.453 3859.83C177.603 3868.86 153.329 3867.81 117.664 3853.32C99.6418 3846 77.1737 3826.51 52.0479 3797.94C26.938 3769.4 -0.775107 3731.85 -29.2934 3688.52C-86.3294 3601.84 -146.563 3492.03 -195.606 3384.77C-244.654 3277.5 -282.493 3172.82 -294.765 3096.4C-300.903 3058.17 -300.63 3027.1 -292.238 3006.32C-288.047 2995.94 -281.841 2988.15 -273.414 2983.29C-264.984 2978.44 -254.279 2976.49 -241.04 2977.9Z"  shape-rendering="crispEdges"/>
</g>
<g filter="url(#filter1_d_128_2)">
<path d="M-267.176 5093C237.783 4958.16 -230.574 4701.03 37.4931 4761.06C1068.18 4991.84 326.937 5035.13 136.996 5122.96C-128.281 5245.62 132.866 5337.74 -175.305 5331.95C-331.903 5329.01 -474.165 5148.28 -267.176 5093Z" fill="#F26419" fill-opacity="0.3" shape-rendering="crispEdges"/>
<path d="M-267.176 5093C237.783 4958.16 -230.574 4701.03 37.4931 4761.06C1068.18 4991.84 326.937 5035.13 136.996 5122.96C-128.281 5245.62 132.866 5337.74 -175.305 5331.95C-331.903 5329.01 -474.165 5148.28 -267.176 5093Z" fill="#F26419" fill-opacity="0.3" shape-rendering="crispEdges"/>
<path d="M-267.047 5093.49C-140.771 5059.77 -75.2287 5018.37 -43.8373 4976.11C-12.419 4933.81 -15.273 4890.72 -25.5252 4853.82C-29.6753 4838.89 -35.0432 4824.95 -39.8406 4812.49C-40.9654 4809.57 -42.0588 4806.73 -43.0978 4803.98C-45.8358 4796.73 -48.1945 4790.09 -49.7645 4784.16C-51.3357 4778.23 -52.1061 4773.04 -51.6947 4768.69C-51.2849 4764.35 -49.7051 4760.85 -46.5747 4758.23C-43.4286 4755.6 -38.6629 4753.82 -31.796 4753.05C-18.0521 4751.51 3.87741 4754.04 37.3838 4761.54C295.06 4819.24 441.925 4865.21 514.34 4903.06C532.44 4912.52 545.867 4921.46 555.205 4929.94C564.547 4938.42 569.764 4946.4 571.51 4953.94C574.986 4968.94 564.748 4982.54 544.713 4995.19C524.717 5007.82 495.178 5019.35 460.596 5030.23C426.023 5041.1 386.448 5051.32 346.399 5061.33C338.159 5063.39 329.897 5065.44 321.655 5067.48C249.818 5085.31 179.434 5102.78 136.786 5122.5C70.4226 5153.19 36.9162 5181.99 19.2088 5207.89C3.51917 5230.84 0.262501 5251.47 -2.49561 5268.94C-2.85097 5271.19 -3.19805 5273.39 -3.56237 5275.54C-5.15976 5284.94 -7.08189 5293.27 -11.4381 5300.45C-15.7839 5307.62 -22.5787 5313.69 -33.9981 5318.53C-56.8863 5328.22 -98.2444 5332.9 -175.296 5331.45C-253.436 5329.98 -327.978 5284.15 -357.149 5231.86C-371.725 5205.73 -374.947 5178.05 -361.726 5153.48C-348.495 5128.89 -318.729 5107.29 -267.047 5093.49Z" stroke="black" shape-rendering="crispEdges"/>
</g>
<g filter="url(#filter2_d_128_2)">
<path d="M1438 304.5C1578.48 463.115 1539.13 1098.08 1476 1189.5C1439.58 1242.25 1055.19 1059.5 881.5 842C772.748 705.82 179.028 -95.4109 252 -103C439.5 -122.5 1235.92 76.3354 1438 304.5Z" fill="#F6AE2D" fill-opacity="0.3" shape-rendering="crispEdges"/>
<path d="M1438 304.5C1578.48 463.115 1539.13 1098.08 1476 1189.5C1439.58 1242.25 1055.19 1059.5 881.5 842C772.748 705.82 179.028 -95.4109 252 -103C439.5 -122.5 1235.92 76.3354 1438 304.5Z" fill="#F26419" fill-opacity="0.3" shape-rendering="crispEdges"/>
<path d="M1437.63 304.831C1472.65 344.376 1496.51 413.683 1511.59 496.929C1526.66 580.152 1532.94 677.217 1532.86 772.196C1532.77 867.173 1526.33 960.048 1515.96 1034.89C1510.77 1072.31 1504.61 1105.21 1497.77 1131.6C1490.93 1158.02 1483.43 1177.86 1475.59 1189.22C1471.19 1195.58 1461.45 1198.51 1447.13 1198.13C1432.86 1197.76 1414.23 1194.11 1392.31 1187.56C1348.48 1174.46 1291.63 1149.78 1230.46 1116.65C1108.13 1050.39 968.679 950.366 881.891 841.688C827.523 773.609 651.912 539.265 499.013 320.991C422.563 211.854 351.799 106.745 304.709 28.4498C281.162 -10.702 263.548 -43.1278 254.099 -65.9921C249.371 -77.4344 246.71 -86.4317 246.348 -92.6617C246.168 -95.7779 246.567 -98.1363 247.509 -99.7566C248.433 -101.345 249.911 -102.28 252.052 -102.503C298.847 -107.369 383.716 -98.6125 487.904 -79.1488C592.074 -59.6888 715.501 -29.537 839.385 8.35392C963.271 46.2451 1087.6 91.8723 1193.59 142.28C1299.58 192.695 1387.17 247.868 1437.63 304.831Z" stroke="black" shape-rendering="crispEdges"/>
</g>
<path d="M1230.84 2217.42C926.008 1898.27 277.044 2596.19 261.704 2155.52C259.871 2102.86 440.04 1735.5 668.453 1785.42C1423.37 1950.38 1348.1 1222.86 1563.3 1443.65C1676.69 1559.98 1386 2379.88 1230.84 2217.42Z" fill="#F6AE2D" fill-opacity="0.3"/> <!-- asta -->
<g filter="url(#filter3_d_128_2)">
<path d="M1286 4654.5C1318.5 4283.5 866.5 4283.5 855 4150C829.584 3854.94 1286 3645 1258.5 3820C1213.37 4107.19 1513.38 4281.12 1848.89 4334.78C2021.72 4362.43 1255.79 4999.37 1286 4654.5Z" fill="#F26419" fill-opacity="0.2" shape-rendering="crispEdges"/>
<path d="M1286 4654.5C1318.5 4283.5 866.5 4283.5 855 4150C829.584 3854.94 1286 3645 1258.5 3820C1213.37 4107.19 1513.38 4281.12 1848.89 4334.78C2021.72 4362.43 1255.79 4999.37 1286 4654.5Z" fill="#F6AE2D" fill-opacity="0.2" shape-rendering="crispEdges"/>
<path d="M1286.5 4654.54C1294.63 4561.68 1272.45 4492 1234.39 4437.64C1196.35 4383.3 1142.46 4344.3 1087.25 4312.75C1059.64 4296.98 1031.69 4283.06 1005.22 4270.02C1003.09 4268.98 1000.98 4267.94 998.881 4266.91C974.751 4255.03 951.998 4243.83 932.012 4232.54C910.283 4220.26 891.858 4207.89 878.51 4194.44C865.167 4180.99 856.923 4166.49 855.499 4149.96C842.814 4002.7 950.377 3876.6 1057.8 3809.15C1111.51 3775.43 1165.09 3756.43 1203.48 3756.74C1222.67 3756.9 1237.98 3761.88 1247.65 3772.18C1257.31 3782.46 1261.43 3798.14 1258.01 3819.92C1235.41 3963.74 1299.24 4079.19 1410.65 4165.36C1522.04 4251.52 1681 4308.44 1848.81 4335.28C1859.53 4336.99 1866.51 4341.05 1870.29 4346.99C1874.09 4352.93 1874.75 4360.87 1872.6 4370.49C1868.28 4389.76 1852.72 4415.49 1829.21 4444.59C1782.22 4502.75 1703.66 4574.16 1620.64 4633.93C1537.59 4693.71 1450.16 4741.81 1385.42 4753.43C1353.05 4759.25 1326.48 4755.92 1308.93 4740.54C1291.39 4725.16 1282.73 4697.59 1286.5 4654.54Z" stroke="black" shape-rendering="crispEdges"/>
</g>
<defs>
<filter id="filter0_d_128_2" x="-303.501" y="2587.52" width="1258.72" height="1286.61" filterUnits="userSpaceOnUse" color-interpolation-filters="sRGB">
<feFlood flood-opacity="0" result="BackgroundImageFix"/>
<feColorMatrix in="SourceAlpha" type="matrix" values="0 0 0 0 0 0 0 0 0 0 0 0 0 0 0 0 0 0 127 0" result="hardAlpha"/>
<feOffset dy="4"/>
<feGaussianBlur stdDeviation="2"/>
<feComposite in2="hardAlpha" operator="out"/>
<feColorMatrix type="matrix" values="0 0 0 0 0 0 0 0 0 0 0 0 0 0 0 0 0 0 0.25 0"/>
<feBlend mode="normal" in2="BackgroundImageFix" result="effect1_dropShadow_128_2"/>
<feBlend mode="normal" in="SourceGraphic" in2="effect1_dropShadow_128_2" result="shape"/>
</filter>
<filter id="filter1_d_128_2" x="-374.565" y="4752.12" width="951.245" height="588.088" filterUnits="userSpaceOnUse" color-interpolation-filters="sRGB">
<feFlood flood-opacity="0" result="BackgroundImageFix"/>
<feColorMatrix in="SourceAlpha" type="matrix" values="0 0 0 0 0 0 0 0 0 0 0 0 0 0 0 0 0 0 127 0" result="hardAlpha"/>
<feOffset dy="4"/>
<feGaussianBlur stdDeviation="2"/>
<feComposite in2="hardAlpha" operator="out"/>
<feColorMatrix type="matrix" values="0 0 0 0 0 0 0 0 0 0 0 0 0 0 0 0 0 0 0.25 0"/>
<feBlend mode="normal" in2="BackgroundImageFix" result="effect1_dropShadow_128_2"/>
<feBlend mode="normal" in="SourceGraphic" in2="effect1_dropShadow_128_2" result="shape"/>
</filter>
<filter id="filter2_d_128_2" x="241.806" y="-104.324" width="1295.55" height="1310.99" filterUnits="userSpaceOnUse" color-interpolation-filters="sRGB">
<feFlood flood-opacity="0" result="BackgroundImageFix"/>
<feColorMatrix in="SourceAlpha" type="matrix" values="0 0 0 0 0 0 0 0 0 0 0 0 0 0 0 0 0 0 127 0" result="hardAlpha"/>
<feOffset dy="4"/>
<feGaussianBlur stdDeviation="2"/>
<feComposite in2="hardAlpha" operator="out"/>
<feColorMatrix type="matrix" values="0 0 0 0 0 0 0 0 0 0 0 0 0 0 0 0 0 0 0.25 0"/>
<feBlend mode="normal" in2="BackgroundImageFix" result="effect1_dropShadow_128_2"/>
<feBlend mode="normal" in="SourceGraphic" in2="effect1_dropShadow_128_2" result="shape"/>
</filter>
<filter id="filter3_d_128_2" x="849.976" y="3756.24" width="1028.34" height="1008.38" filterUnits="userSpaceOnUse" color-interpolation-filters="sRGB">
<feFlood flood-opacity="0" result="BackgroundImageFix"/>
<feColorMatrix in="SourceAlpha" type="matrix" values="0 0 0 0 0 0 0 0 0 0 0 0 0 0 0 0 0 0 127 0" result="hardAlpha"/>
<feOffset dy="4"/>
<feGaussianBlur stdDeviation="2"/>
<feComposite in2="hardAlpha" operator="out"/>
<feColorMatrix type="matrix" values="0 0 0 0 0 0 0 0 0 0 0 0 0 0 0 0 0 0 0.25 0"/>
<feBlend mode="normal" in2="BackgroundImageFix" result="effect1_dropShadow_128_2"/>
<feBlend mode="normal" in="SourceGraphic" in2="effect1_dropShadow_128_2" result="shape"/>
</filter>
</defs>
</svg>
