<svg width="1865" height="1149" viewBox="0 0 1865 1149" fill="none" xmlns="http://www.w3.org/2000/svg">
<g filter="url(#filter0_d_108_9)">
<path d="M1041 473.5C1380 295 1444 353.5 1604.5 702C1233.5 660 112.5 935 145 572C177.5 209 327 387 471.5 473.5C664 359.5 750 270.5 1041 473.5Z" fill="#0018A4" fill-opacity="0.85" shape-rendering="crispEdges"/>
<path d="M1040.66 473.906L1040.91 474.075L1041.2 473.92C1125.94 429.3 1193.45 399.515 1249.56 385.361C1305.66 371.211 1350.33 372.689 1389.42 390.57C1428.53 408.458 1462.12 442.789 1495.97 494.466C1529.71 545.976 1563.68 614.675 1603.64 701.405C1510.83 691.074 1371.58 700.378 1215.38 714.53C1173.23 718.35 1129.84 722.522 1085.79 726.758C966.02 738.277 841.379 750.263 723.473 756.888C562.197 765.95 413.592 764.976 307.349 739.073C254.229 726.122 211.742 706.949 183.552 679.72C155.375 652.504 141.46 617.221 145.51 571.979C153.634 481.239 169.066 424.407 189.836 391.515C200.212 375.083 211.902 364.656 224.656 358.942C237.411 353.226 251.296 352.196 266.1 354.668C295.739 359.618 328.916 378.579 363.766 401.763C376.188 410.027 388.822 418.827 401.577 427.711C424.567 443.724 447.95 460.01 471.19 473.922L471.443 474.074L471.728 473.905C488.593 463.918 504.632 454.127 520.059 444.711C548.685 427.238 575.204 411.051 600.979 397.278C640.626 376.092 678.446 360.657 719.32 355.108C801.06 344.01 895.185 372.421 1040.66 473.906Z" stroke="black" shape-rendering="crispEdges"/>
</g>
<g filter="url(#filter1_d_108_9)">
<path d="M1031 508.5C1315.2 363.562 1431.16 390.66 1568.5 676C1255.94 640.601 181.475 879.137 206.5 582.5C231.525 285.862 301.729 482.054 457.5 508.5C618.803 415.865 784.749 341.723 1031 508.5Z" fill="#000D58" fill-opacity="0.85" shape-rendering="crispEdges"/>
<path d="M1030.67 508.909L1030.91 509.07L1031.19 508.924C1173.29 436.458 1273.15 407.101 1354.62 431.363C1435.94 455.581 1499.11 533.272 1567.62 675.403C1489.35 666.729 1363.99 674.991 1220.33 687.686C1180.41 691.212 1139.08 695.082 1096.96 699.026C986.764 709.342 871.094 720.17 760.941 726.728C608.665 735.792 466.993 736.689 364.965 716.797C313.95 706.851 272.892 691.716 245.375 669.843C217.876 647.983 203.896 619.394 207.01 582.477C210.138 545.406 213.97 516.047 218.584 493.099C223.199 470.145 228.59 453.638 234.819 442.254C241.044 430.878 248.07 424.678 255.944 422.216C263.844 419.747 272.729 420.996 282.73 424.8C292.723 428.602 303.751 434.924 315.909 442.496C320.657 445.453 325.58 448.602 330.679 451.863C338.617 456.942 346.981 462.292 355.772 467.612C384.664 485.098 418.318 502.354 457.349 508.98L457.541 509.013L457.721 508.909C538.365 462.596 620.083 420.96 712.383 411.705C804.666 402.452 907.607 425.564 1030.67 508.909Z" stroke="black" shape-rendering="crispEdges"/>
</g>
<defs>
<filter id="filter0_d_108_9" x="140.308" y="352.367" width="1468.19" height="418.199" filterUnits="userSpaceOnUse" color-interpolation-filters="sRGB">
<feFlood flood-opacity="0" result="BackgroundImageFix"/>
<feColorMatrix in="SourceAlpha" type="matrix" values="0 0 0 0 0 0 0 0 0 0 0 0 0 0 0 0 0 0 127 0" result="hardAlpha"/>
<feOffset dy="4"/>
<feGaussianBlur stdDeviation="2"/>
<feComposite in2="hardAlpha" operator="out"/>
<feColorMatrix type="matrix" values="0 0 0 0 0 0 0 0 0 0 0 0 0 0 0 0 0 0 0.25 0"/>
<feBlend mode="normal" in2="BackgroundImageFix" result="effect1_dropShadow_108_9"/>
<feBlend mode="normal" in="SourceGraphic" in2="effect1_dropShadow_108_9" result="shape"/>
</filter>
<filter id="filter1_d_108_9" x="202.07" y="409.308" width="1370.43" height="332.071" filterUnits="userSpaceOnUse" color-interpolation-filters="sRGB">
<feFlood flood-opacity="0" result="BackgroundImageFix"/>
<feColorMatrix in="SourceAlpha" type="matrix" values="0 0 0 0 0 0 0 0 0 0 0 0 0 0 0 0 0 0 127 0" result="hardAlpha"/>
<feOffset dy="4"/>
<feGaussianBlur stdDeviation="2"/>
<feComposite in2="hardAlpha" operator="out"/>
<feColorMatrix type="matrix" values="0 0 0 0 0 0 0 0 0 0 0 0 0 0 0 0 0 0 0.25 0"/>
<feBlend mode="normal" in2="BackgroundImageFix" result="effect1_dropShadow_108_9"/>
<feBlend mode="normal" in="SourceGraphic" in2="effect1_dropShadow_108_9" result="shape"/>
</filter>
</defs>
</svg>
