<svg width="1428" height="1024" viewBox="0 0 1428 1024" fill="none" xmlns="http://www.w3.org/2000/svg">
<path d="M342.625 838.308C420.125 886.808 510.625 998.478 342.625 998.478C245.699 998.478 -17.8755 893.978 48.6245 771.478C124.625 657.478 158.625 640.018 244.125 590.308C394.625 502.809 222.625 793.808 342.625 838.308Z" fill="#B4C5E4" fill-opacity="0.2"/>
<path d="M329.397 316.047C211.353 349.319 265.844 434.335 135.698 445.073C53.5502 451.851 52.0377 364.876 27.6053 278.192C64.5853 170.797 156.31 218.387 239.269 135.597C343.206 31.8709 479.41 273.765 329.397 316.047Z" fill="#B4C5E4" fill-opacity="0.2"/>
<path d="M812.625 556.5C926.5 570.5 980.625 689.478 812.625 689.478C715.699 689.478 452.124 584.978 518.624 462.478C594.625 348.478 615.553 273.257 714.125 281.308C869.5 294 664.5 462.478 812.625 556.5Z" fill="#B4C5E4" fill-opacity="0.2"/>
<path d="M1409.9 700.528C1481.99 843.464 1293.54 753.746 1198.07 891.988C1143 971.745 1022.07 1064.96 959.057 940.63C908.436 813.313 1086.46 848.649 1161.71 784.471C1308.36 659.39 1306.19 494.917 1409.9 700.528Z" fill="#B4C5E4" fill-opacity="0.2"/>
<path d="M1118 284.656C1046.79 297.708 895.978 337.574 989.9 198.281C1044.09 117.917 1240.4 -12.9137 1304.79 110.708C1365.65 227.565 1453.32 312.811 1363.79 348.708C1257.79 391.208 1251.25 260.233 1118 284.656Z" fill="#B4C5E4" fill-opacity="0.2"/>
</svg>
