<svg width="62" height="61" viewBox="0 0 62 61" fill="none" xmlns="http://www.w3.org/2000/svg">
<g clip-path="url(#clip0_92_239)">
<path d="M18.1641 0H43.8359C53.8625 0 62 8.00625 62 17.8711V43.1289C62 52.9938 53.8625 61 43.8359 61H18.1641C8.1375 61 0 52.9938 0 43.1289V17.8711C0 8.00625 8.1375 0 18.1641 0ZM6.05469 43.1289C6.05469 49.6983 11.487 55.043 18.1641 55.043H43.8359C50.513 55.043 55.9453 49.6983 55.9453 43.1289V17.8711C55.9453 11.3017 50.513 5.95703 43.8359 5.95703H18.1641C11.487 5.95703 6.05469 11.3017 6.05469 17.8711V43.1289ZM45.1183 47.7754V13.2246C45.1183 12.2381 44.3046 11.4375 43.3019 11.4375H41.1949C40.1922 11.4375 39.3785 12.2381 39.3785 13.2246V47.7754C39.3785 48.7619 40.1922 49.5625 41.1949 49.5625H43.3019C44.3046 49.5625 45.1183 48.7619 45.1183 47.7754ZM17.4133 29.2359L32.4035 14.4875C33.5478 13.3616 35.5047 14.1587 35.5047 15.7516V45.2472C35.5047 46.8389 33.5478 47.6372 32.4035 46.5113L17.4133 31.7629C16.7037 31.0647 16.7037 29.9329 17.4133 29.2359Z" fill="#5B5050"/>
</g>
<defs>
<clipPath id="clip0_92_239">
<rect width="62" height="61" fill="white" transform="matrix(-1 0 0 1 62 0)"/>
</clipPath>
</defs>
</svg>
