<svg width="62" height="61" viewBox="0 0 62 61" fill="none" xmlns="http://www.w3.org/2000/svg">
<path d="M43.8359 0H18.1641C8.1375 0 0 8.00625 0 17.8711V43.1289C0 52.9938 8.1375 61 18.1641 61H43.8359C53.8625 61 62 52.9938 62 43.1289V17.8711C62 8.00625 53.8625 0 43.8359 0ZM55.9453 43.1289C55.9453 49.6983 50.513 55.043 43.8359 55.043H18.1641C11.487 55.043 6.05469 49.6983 6.05469 43.1289V17.8711C6.05469 11.3017 11.487 5.95703 18.1641 5.95703H43.8359C50.513 5.95703 55.9453 11.3017 55.9453 17.8711V43.1289ZM16.8817 47.7754V13.2246C16.8817 12.2381 17.6954 11.4375 18.6981 11.4375H20.8051C21.8078 11.4375 22.6215 12.2381 22.6215 13.2246V47.7754C22.6215 48.7619 21.8078 49.5625 20.8051 49.5625H18.6981C17.6954 49.5625 16.8817 48.7619 16.8817 47.7754ZM44.5867 29.2359L29.5965 14.4875C28.4522 13.3616 26.4953 14.1587 26.4953 15.7516V45.2472C26.4953 46.8389 28.4522 47.6372 29.5965 46.5113L44.5867 31.7629C45.2963 31.0647 45.2963 29.9329 44.5867 29.2359Z" fill="#5B5050"/>
</svg>
