<svg width="63" height="63" viewBox="0 0 63 63" fill="none" xmlns="http://www.w3.org/2000/svg">
<g clip-path="url(#clip0_78_23)">
<path d="M28.2615 9.99004C24.6635 6.39203 18.8084 6.39203 15.2104 9.99004L12.6002 12.6002L9.99001 15.2104C6.392 18.8084 6.392 24.6635 9.99001 28.2615L13.2285 31.5H18.4489L24.9744 24.9744L31.5 18.4489V13.2285L28.2615 9.99004Z" fill="#4759C1"/>
<path d="M53.0099 34.7385L49.7715 31.5H44.5511L38.0255 38.0255L31.5 44.5511V49.7715L34.7385 53.0099C38.3365 56.608 44.1915 56.608 47.7896 53.0099L50.3998 50.3998L53.0099 47.7896C56.608 44.1915 56.608 38.3365 53.0099 34.7385Z" fill="#4759C1"/>
<path d="M31.4999 13.2285L28.2614 9.99004C24.6634 6.39203 18.8083 6.39203 15.2103 9.99004L12.6001 12.6002L24.9743 24.9744L31.4999 18.4489V13.2285Z" fill="#0018A4"/>
<path d="M53.0098 34.7385L49.7713 31.5H44.5509L38.0254 38.0255L50.3996 50.3998L53.0098 47.7896C56.6078 44.1915 56.6078 38.3365 53.0098 34.7385Z" fill="#0018A4"/>
<path d="M53.0099 15.2104L50.3998 12.6002L47.7896 9.99004C44.1915 6.39203 38.3365 6.39203 34.7385 9.99004L31.5 13.2285L31.7231 18.672L38.0255 24.9744L44.328 31.2769L49.7715 31.5L53.0099 28.2615C56.608 24.6635 56.608 18.8084 53.0099 15.2104Z" fill="#A677C4"/>
<path d="M24.9744 38.0255L18.672 31.7231L13.2285 31.5L9.99001 34.7385C6.392 38.3365 6.392 44.1915 9.99001 47.7896L12.6002 50.3998L15.2104 53.0099C18.8084 56.608 24.6635 56.608 28.2615 53.0099L31.5 49.7715L31.2769 44.328L24.9744 38.0255Z" fill="#A677C4"/>
<path d="M49.7713 31.5L53.0098 28.2615C56.6078 24.6635 56.6078 18.8084 53.0098 15.2104L50.3996 12.6002L38.0254 24.9744L44.3279 31.2769L49.7713 31.5Z" fill="#8B51B8"/>
<path d="M28.2614 53.0099L31.4999 49.7715L31.2768 44.328L24.9743 38.0255L12.6001 50.3998L15.2103 53.0099C18.8083 56.608 24.6634 56.608 28.2614 53.0099Z" fill="#8B51B8"/>
<path d="M55.6201 14.7625C59.6975 14.7625 63.0029 11.4571 63.0029 7.37973C63.0029 3.30232 59.6975 -0.00308228 55.6201 -0.00308228C51.5427 -0.00308228 48.2373 3.30232 48.2373 7.37973C48.2373 11.4571 51.5427 14.7625 55.6201 14.7625Z" fill="#FFE1BA"/>
<path d="M7.37964 63.0029C11.4571 63.0029 14.7625 59.6975 14.7625 55.6201C14.7625 51.5427 11.4571 48.2373 7.37964 48.2373C3.30222 48.2373 -0.00317383 51.5427 -0.00317383 55.6201C-0.00317383 59.6975 3.30222 63.0029 7.37964 63.0029Z" fill="#FFE1BA"/>
<path d="M60.8406 12.6002C63.7197 9.72105 63.7197 5.03851 60.8406 2.15933L50.3997 12.6002C53.2788 15.4794 57.9614 15.4794 60.8406 12.6002Z" fill="#FFBFAB"/>
<path d="M12.6001 60.8406C15.4792 57.9615 15.4792 53.2789 12.6001 50.3997L2.15918 60.8406C5.03835 63.7198 9.7209 63.7198 12.6001 60.8406Z" fill="#FFBFAB"/>
<path d="M40.6357 38.0255L41.9409 39.3307L49.7716 31.5L44.3281 26.0565C45.3082 23.9982 44.9475 21.4556 43.246 19.7541C41.5446 18.0526 39.0019 17.6919 36.9436 18.672L31.5 13.2285L23.6693 21.0592L24.9744 22.3644C25.6945 23.0844 25.6945 24.2545 24.9744 24.9746C24.2544 25.6946 23.0843 25.6946 22.3643 24.9746L21.0591 23.6694L13.2285 31.5L18.672 36.9435C17.6919 39.0018 18.0526 41.5444 19.7541 43.2459C21.4556 44.9474 23.9982 45.3081 26.0565 44.328L31.5 49.7715L39.3307 41.9408L38.0255 40.6356C37.3055 39.9155 37.3055 38.7455 38.0255 38.0254C38.7456 37.3055 39.9157 37.3055 40.6357 38.0255Z" fill="#FFC857"/>
<path d="M26.0564 44.328L31.4998 49.7715L39.3305 41.9408L38.0254 40.6356C37.3053 39.9155 37.3053 38.7455 38.0254 38.0254C38.7455 37.3053 39.9155 37.3053 40.6356 38.0254L41.9407 39.3306L49.7714 31.4999L44.328 26.0564C45.308 23.9981 44.9474 21.4554 43.2459 19.7539L19.7539 43.2459C21.4554 44.9474 23.998 45.3082 26.0564 44.328Z" fill="#F4A400"/>
<path d="M7.37964 14.7625C11.4571 14.7625 14.7625 11.4571 14.7625 7.37973C14.7625 3.30232 11.4571 -0.00308228 7.37964 -0.00308228C3.30222 -0.00308228 -0.00317383 3.30232 -0.00317383 7.37973C-0.00317383 11.4571 3.30222 14.7625 7.37964 14.7625Z" fill="#FFE1BA"/>
<path d="M55.6201 63.0031C59.6975 63.0031 63.0029 59.6977 63.0029 55.6203C63.0029 51.5428 59.6975 48.2374 55.6201 48.2374C51.5427 48.2374 48.2373 51.5428 48.2373 55.6203C48.2373 59.6977 51.5427 63.0031 55.6201 63.0031Z" fill="#FFE1BA"/>
<path d="M12.6001 2.15935C9.7209 -0.719824 5.03835 -0.719824 2.15918 2.15935L12.6001 12.6002C15.4792 9.72107 15.4792 5.03852 12.6001 2.15935Z" fill="#FFBFAB"/>
<path d="M60.8406 50.3998C57.9614 47.5206 53.2788 47.5206 50.3997 50.3998L60.8406 60.8406C63.7197 57.9615 63.7197 53.2789 60.8406 50.3998Z" fill="#FFBFAB"/>
</g>
<defs>
<clipPath id="clip0_78_23">
<rect width="63" height="63" fill="white"/>
</clipPath>
</defs>
</svg>
